<svg xmlns="http://www.w3.org/2000/svg" xmlns:xlink="http://www.w3.org/1999/xlink" width="6912" zoomAndPan="magnify" viewBox="0 0 5184 2592.000001" height="3456" preserveAspectRatio="xMidYMid meet" version="1.0"><defs><filter x="0%" y="0%" width="100%" height="100%" id="a74e7a6152"><feColorMatrix values="0 0 0 0 1 0 0 0 0 1 0 0 0 0 1 0 0 0 1 0" color-interpolation-filters="sRGB"/></filter><mask id="f91e53f9a1"><g filter="url(#a74e7a6152)"><rect x="-518.4" width="6220.8" fill="#000000" y="-259.2" height="3110.400001" fill-opacity="0.13"/></g></mask><clipPath id="4b1ce42f31"><path d="M 0 0.191406 L 2591 0.191406 L 2591 2561.628906 L 0 2561.628906 Z M 0 0.191406 " clip-rule="nonzero"/></clipPath><clipPath id="8964be3a0c"><rect x="0" width="2594" y="0" height="2563"/></clipPath><mask id="b101c1668b"><g filter="url(#a74e7a6152)"><rect x="-518.4" width="6220.8" fill="#000000" y="-259.2" height="3110.400001" fill-opacity="0.16"/></g></mask><clipPath id="b6bed213da"><path d="M 0 0.765625 L 2591 0.765625 L 2591 2562.203125 L 0 2562.203125 Z M 0 0.765625 " clip-rule="nonzero"/></clipPath><clipPath id="e2f38bf8f4"><rect x="0" width="2591" y="0" height="2564"/></clipPath></defs><path fill="#ffffff" d="M 1 0 L 5183 0 L 5183 2591 L 1 2591 Z M 1 0 " fill-opacity="1" fill-rule="nonzero"/><path fill="#004d24" d="M 1 0 L 5183 0 L 5183 2591 L 1 2591 Z M 1 0 " fill-opacity="1" fill-rule="nonzero"/><g mask="url(#f91e53f9a1)"><g transform="matrix(1, 0, 0, 1, 1, -0.000000000000208807)"><g clip-path="url(#8964be3a0c)"><g clip-path="url(#4b1ce42f31)"><path fill="#fdfb52" d="M 2209.375 643.113281 L 1854.496094 438.230469 L 1854.496094 848.003906 Z M 2213.816406 1416.203125 L 1854.527344 1208.75 L 1854.527344 1278.34375 L 2213.816406 1485.796875 Z M 1854.539062 1188.164062 L 2213.816406 1395.605469 L 2213.816406 1331.15625 L 1854.527344 1123.722656 Z M 2213.816406 1246.128906 L 1854.527344 1038.6875 L 1854.527344 1103.148438 L 2213.816406 1310.570312 Z M 2213.816406 1161.089844 L 1854.527344 953.636719 L 1854.527344 1018.097656 L 2213.816406 1225.542969 Z M 2213.816406 1070.882812 C 2094.035156 1001.835938 1974.28125 932.574219 1854.527344 863.4375 L 1854.527344 933.070312 L 2213.816406 1140.492188 Z M 2034.179688 106.480469 C 2097.070312 142.707031 2159.921875 179.03125 2222.753906 215.355469 L 2222.753906 438.230469 L 1841.160156 217.914062 Z M 2034.179688 319.074219 L 2209.382812 217.914062 L 2034.179688 116.765625 L 1858.972656 217.914062 Z M 2213.816406 225.636719 L 2043.074219 324.21875 L 2213.816406 422.796875 Z M 740.894531 820.929688 L 381.59375 613.488281 L 381.59375 677.941406 L 740.894531 885.382812 Z M 740.894531 735.894531 L 381.59375 528.449219 L 381.59375 592.902344 L 740.894531 800.332031 Z M 740.894531 650.835938 L 381.59375 443.394531 L 381.59375 507.863281 L 740.894531 715.304688 Z M 805.640625 603.183594 L 446.308594 395.722656 L 390.492188 427.9375 L 749.820312 635.402344 Z M 879.28125 560.667969 L 519.949219 353.203125 L 464.144531 385.417969 L 823.460938 592.882812 Z M 1104.695312 430.53125 L 745.359375 223.066406 L 685.085938 257.863281 L 1044.414062 465.324219 Z M 749.820312 893.113281 L 894.867188 976.855469 L 955.136719 942.050781 L 749.820312 823.511719 Z M 807.855469 1027.085938 L 749.820312 993.585938 L 749.820312 1060.585938 Z M 749.820312 978.140625 L 821.226562 1019.363281 L 881.496094 984.566406 L 749.820312 908.546875 Z M 1477.34375 985.855469 L 1118.058594 778.410156 L 1118.058594 853.144531 L 1477.34375 1060.597656 Z M 1477.34375 900.816406 L 1118.058594 693.375 L 1118.058594 768.117188 L 1477.34375 975.558594 Z M 1477.34375 815.777344 L 1118.058594 608.335938 L 1118.058594 683.082031 L 1477.34375 890.523438 Z M 901.476562 983.242188 L 1260.875 1190.746094 L 1325.609375 1153.378906 L 966.191406 945.863281 Z M 1178.316406 1238.40625 L 818.957031 1030.921875 L 754.265625 1068.308594 L 1113.601562 1275.773438 Z M 827.863281 1025.769531 L 1187.234375 1233.265625 L 1251.957031 1195.898438 L 892.558594 988.382812 Z M 740.894531 991.003906 L 381.59375 783.5625 L 381.59375 853.164062 L 740.894531 1060.585938 Z M 381.59375 762.976562 L 740.894531 970.410156 L 740.894531 905.96875 L 381.59375 698.527344 Z M 952.921875 518.148438 L 593.589844 310.683594 L 537.773438 342.910156 L 897.101562 550.363281 Z M 611.425781 300.382812 L 970.746094 507.84375 L 1026.59375 475.617188 L 667.253906 268.15625 Z M 1028.789062 899.539062 L 749.820312 738.472656 L 749.820312 808.078125 L 968.515625 934.328125 Z M 749.820312 723.039062 L 1042.160156 891.820312 L 1102.441406 857 L 749.820312 653.417969 Z M 1109.121094 605.753906 L 964.054688 521.992188 L 903.773438 556.789062 L 1109.121094 675.347656 Z M 1051.046875 471.773438 L 1109.121094 505.292969 L 1109.121094 438.242188 Z M 1109.121094 520.707031 L 1037.707031 479.476562 L 977.425781 514.28125 L 1109.121094 590.3125 Z M 830.121094 599.320312 L 1109.121094 760.394531 L 1109.121094 690.792969 L 890.402344 564.511719 Z M 1109.121094 775.808594 L 816.773438 607.019531 L 756.492188 641.828125 L 1109.121094 845.421875 Z M 1399.261719 1110.847656 L 1039.859375 903.355469 L 975.105469 940.722656 L 1334.515625 1148.226562 Z M 1048.777344 898.214844 L 1408.15625 1105.707031 L 1472.914062 1068.332031 L 1113.582031 860.859375 Z M 1477.34375 730.75 L 1118.058594 523.308594 L 1118.058594 598.042969 L 1477.34375 805.484375 Z M 1118.058594 513.007812 L 1477.34375 720.457031 L 1477.34375 645.671875 L 1118.058594 438.230469 Z M 1122.488281 430.53125 L 1481.820312 637.980469 L 1841.160156 430.53125 L 1481.820312 223.066406 Z M 197.472656 1384.636719 C 197.472656 1457.214844 197.359375 1529.800781 197.480469 1602.378906 L 4.472656 1713.804688 C 4.390625 1566.945312 4.453125 1420.078125 4.453125 1273.210938 Z M 184.132812 1599.800781 L 13.371094 1501.210938 L 13.371094 1698.390625 Z M 13.371094 1490.9375 L 188.585938 1592.105469 L 188.574219 1389.765625 L 13.347656 1288.617188 Z M 197.480469 529.109375 L 197.480469 757.148438 L 0 643.121094 Z M 188.546875 544.535156 L 17.800781 643.113281 L 188.546875 741.691406 Z M 1113.59375 0.191406 C 1177.964844 37.265625 1242.28125 74.46875 1306.613281 111.632812 C 1242.273438 148.777344 1177.894531 185.863281 1113.59375 223.066406 C 1049.292969 185.863281 984.902344 148.777344 920.585938 111.632812 Z M 1113.59375 10.484375 L 938.375 111.632812 L 1113.59375 212.792969 L 1288.800781 111.632812 Z M 1109.128906 1283.484375 L 749.820312 1076.03125 L 749.820312 1490.9375 L 1109.128906 1698.378906 Z M 1477.375 1911.003906 L 1477.386719 1490.9375 L 1841.148438 1280.902344 L 1481.808594 1073.453125 C 1360.457031 1143.289062 1239.359375 1213.558594 1118.058594 1283.472656 L 1118.058594 1703.550781 Z M 1486.28125 1583.726562 L 1486.28125 1653.320312 L 1845.582031 1445.867188 L 1845.582031 1376.273438 Z M 1845.582031 1288.636719 L 1486.28125 1496.089844 L 1486.28125 1568.28125 L 1845.582031 1360.828125 Z M 1486.28125 1738.347656 L 1845.582031 1530.90625 L 1845.582031 1461.3125 L 1486.28125 1668.765625 Z M 1486.28125 1823.394531 L 1845.582031 1615.941406 L 1845.582031 1546.351562 L 1486.28125 1753.792969 Z M 1845.582031 1631.378906 L 1486.273438 1838.839844 L 1486.273438 1911.003906 L 1845.582031 1703.550781 Z M 680.613281 1110.839844 L 680.621094 1525.742188 L 740.933594 1490.9375 L 740.914062 1076.03125 Z M 606.953125 1153.359375 L 606.953125 1568.28125 L 662.820312 1536.015625 L 662.808594 1121.113281 Z M 533.300781 1195.875 L 533.300781 1610.800781 L 589.167969 1578.554688 L 589.160156 1163.628906 Z M 459.667969 1238.394531 L 459.667969 1653.320312 L 515.519531 1621.074219 L 515.507812 1206.160156 Z M 381.59375 1698.390625 L 441.886719 1663.59375 L 441.867188 1248.679688 L 381.59375 1283.472656 Z M 807.867188 1877.480469 L 448.554688 1670.03125 L 386.046875 1706.109375 L 745.367188 1913.5625 Z M 461.925781 1662.308594 L 821.234375 1869.757812 L 881.507812 1834.960938 L 522.1875 1627.511719 Z M 682.878906 1534.742188 L 1042.179688 1742.183594 L 1104.675781 1706.109375 L 745.378906 1498.648438 Z M 955.148438 1792.445312 L 595.839844 1584.980469 L 535.558594 1619.796875 L 894.875 1827.242188 Z M 609.207031 1577.28125 L 968.515625 1784.722656 L 1028.808594 1749.90625 L 669.5 1542.464844 Z M 552.347656 2024.996094 L 381.59375 1926.425781 L 381.59375 2123.585938 Z M 570.160156 2025.007812 L 372.667969 2139.03125 L 372.667969 1911.003906 Z M 1841.160156 2131.289062 L 1486.273438 1926.40625 L 1486.28125 2336.179688 Z M 819.007812 2381.28125 L 1178.328125 2173.808594 L 1113.59375 2136.441406 L 754.265625 2343.902344 Z M 1039.953125 2508.835938 L 1399.300781 2301.382812 L 1334.558594 2264.007812 L 975.226562 2471.46875 Z M 1408.199219 2306.523438 L 1048.867188 2513.976562 L 1113.601562 2551.363281 L 1472.941406 2343.902344 Z M 892.671875 2423.808594 L 1252 2216.347656 L 1187.246094 2178.957031 L 827.914062 2386.421875 Z M 1260.90625 2221.488281 L 901.585938 2428.949219 L 966.3125 2466.328125 L 1325.640625 2258.863281 Z M 1845.601562 438.230469 L 1486.292969 645.671875 L 1486.292969 1065.75 L 1845.582031 1273.191406 C 1845.582031 994.839844 1845.601562 716.570312 1845.601562 438.230469 Z M 1490.726562 1918.726562 L 1858.960938 2131.308594 C 1610.550781 2274.804688 1362.136719 2418.324219 1113.601562 2561.628906 C 987.867188 2489.128906 862.175781 2416.511719 736.480469 2343.902344 C 862.164062 2271.292969 987.960938 2198.855469 1113.59375 2126.175781 L 1477.386719 2336.191406 C 1477.386719 2197.886719 1477.457031 2059.589844 1477.375 1921.285156 C 1356.054688 1851.390625 1234.8125 1781.320312 1113.59375 1711.242188 L 745.367188 1923.855469 C 621.011719 1852.359375 496.855469 1780.449219 372.660156 1708.671875 L 372.660156 1283.453125 L 0.0195312 1068.308594 L 372.660156 853.164062 L 372.660156 427.96875 C 496.894531 356.230469 621.019531 284.300781 745.378906 212.792969 L 1113.601562 425.378906 L 1481.808594 212.792969 C 1730.464844 355.886719 1978.722656 499.6875 2227.1875 643.121094 L 1858.960938 855.726562 L 2218.28125 1063.179688 L 2590.96875 848.023438 C 2590.96875 994.890625 2591.050781 1141.757812 2590.949219 1288.625 C 2468.222656 1217.777344 2345.523438 1146.851562 2222.753906 1076.03125 L 2222.753906 1501.238281 C 2100.015625 1430.382812 1977.226562 1359.566406 1854.507812 1288.636719 L 1854.507812 1708.671875 C 1733.296875 1778.730469 1612.066406 1848.828125 1490.726562 1918.726562 Z M 736.472656 1068.308594 L 377.132812 860.859375 L 17.800781 1068.308594 L 377.140625 1275.773438 C 496.914062 1206.625 616.699219 1137.46875 736.472656 1068.308594 Z M 2582.074219 863.417969 L 2227.1875 1068.308594 L 2582.0625 1273.203125 L 2582.074219 863.417969 " fill-opacity="1" fill-rule="nonzero"/></g></g></g></g><g mask="url(#b101c1668b)"><g transform="matrix(1, 0, 0, 1, 2592, 14)"><g clip-path="url(#e2f38bf8f4)"><g clip-path="url(#b6bed213da)"><path fill="#fdfb52" d="M 2209.375 643.6875 L 1854.5 438.804688 L 1854.5 848.578125 Z M 2213.816406 1416.777344 L 1854.527344 1209.324219 L 1854.527344 1278.917969 L 2213.816406 1486.371094 Z M 1854.539062 1188.738281 L 2213.816406 1396.179688 L 2213.816406 1331.730469 L 1854.527344 1124.296875 Z M 2213.816406 1246.703125 L 1854.527344 1039.261719 L 1854.527344 1103.722656 L 2213.816406 1311.144531 Z M 2213.816406 1161.664062 L 1854.527344 954.210938 L 1854.527344 1018.671875 L 2213.816406 1226.117188 Z M 2213.816406 1071.457031 C 2094.035156 1002.410156 1974.28125 933.152344 1854.527344 864.011719 L 1854.527344 933.644531 L 2213.816406 1141.066406 Z M 2034.179688 107.054688 C 2097.070312 143.28125 2159.921875 179.605469 2222.753906 215.929688 L 2222.753906 438.804688 L 1841.160156 218.488281 Z M 2034.179688 319.648438 L 2209.382812 218.488281 L 2034.179688 117.339844 L 1858.972656 218.488281 Z M 2213.816406 226.210938 L 2043.074219 324.792969 L 2213.816406 423.371094 Z M 740.894531 821.503906 L 381.59375 614.0625 L 381.59375 678.515625 L 740.894531 885.957031 Z M 740.894531 736.46875 L 381.59375 529.023438 L 381.59375 593.476562 L 740.894531 800.910156 Z M 740.894531 651.410156 L 381.59375 443.96875 L 381.59375 508.4375 L 740.894531 715.882812 Z M 805.640625 603.757812 L 446.308594 396.296875 L 390.492188 428.511719 L 749.820312 635.976562 Z M 879.28125 561.242188 L 519.949219 353.777344 L 464.144531 385.992188 L 823.460938 593.457031 Z M 1104.695312 431.105469 L 745.359375 223.640625 L 685.085938 258.4375 L 1044.414062 465.898438 Z M 749.820312 893.6875 L 894.867188 977.429688 L 955.136719 942.625 L 749.820312 824.085938 Z M 807.855469 1027.660156 L 749.820312 994.160156 L 749.820312 1061.160156 Z M 749.820312 978.714844 L 821.226562 1019.9375 L 881.496094 985.140625 L 749.820312 909.121094 Z M 1477.347656 986.429688 L 1118.058594 778.984375 L 1118.058594 853.71875 L 1477.347656 1061.171875 Z M 1477.347656 901.390625 L 1118.058594 693.949219 L 1118.058594 768.691406 L 1477.347656 976.136719 Z M 1477.347656 816.351562 L 1118.058594 608.910156 L 1118.058594 683.65625 L 1477.347656 891.097656 Z M 901.476562 983.816406 L 1260.875 1191.320312 L 1325.609375 1153.953125 L 966.191406 946.441406 Z M 1178.316406 1238.980469 L 818.957031 1031.496094 L 754.265625 1068.882812 L 1113.605469 1276.347656 Z M 827.863281 1026.34375 L 1187.234375 1233.839844 L 1251.960938 1196.472656 L 892.558594 988.957031 Z M 740.894531 991.578125 L 381.59375 784.136719 L 381.59375 853.742188 L 740.894531 1061.160156 Z M 381.59375 763.550781 L 740.894531 970.984375 L 740.894531 906.542969 L 381.59375 699.101562 Z M 952.921875 518.722656 L 593.59375 311.261719 L 537.773438 343.484375 L 897.101562 550.9375 Z M 611.425781 300.957031 L 970.746094 508.417969 L 1026.59375 476.191406 L 667.253906 268.730469 Z M 1028.789062 900.117188 L 749.820312 739.046875 L 749.820312 808.652344 L 968.519531 934.902344 Z M 749.820312 723.613281 L 1042.160156 892.394531 L 1102.441406 857.578125 L 749.820312 653.992188 Z M 1109.121094 606.332031 L 964.054688 522.566406 L 903.773438 557.363281 L 1109.121094 675.921875 Z M 1051.046875 472.347656 L 1109.121094 505.867188 L 1109.121094 438.816406 Z M 1109.121094 521.28125 L 1037.707031 480.050781 L 977.425781 514.855469 L 1109.121094 590.886719 Z M 830.121094 599.894531 L 1109.121094 760.96875 L 1109.121094 691.367188 L 890.402344 565.085938 Z M 1109.121094 776.386719 L 816.773438 607.59375 L 756.492188 642.402344 L 1109.121094 845.996094 Z M 1399.261719 1111.421875 L 1039.863281 903.929688 L 975.105469 941.296875 L 1334.515625 1148.800781 Z M 1048.777344 898.789062 L 1408.15625 1106.28125 L 1472.914062 1068.90625 L 1113.582031 861.433594 Z M 1477.347656 731.324219 L 1118.058594 523.882812 L 1118.058594 598.617188 L 1477.347656 806.058594 Z M 1118.058594 513.582031 L 1477.347656 721.03125 L 1477.347656 646.246094 L 1118.058594 438.804688 Z M 1122.488281 431.105469 L 1481.820312 638.554688 L 1841.160156 431.105469 L 1481.820312 223.640625 Z M 197.472656 1385.210938 C 197.472656 1457.789062 197.359375 1530.375 197.484375 1602.953125 L 4.472656 1714.378906 C 4.390625 1567.519531 4.453125 1420.652344 4.453125 1273.785156 Z M 184.132812 1600.375 L 13.371094 1501.785156 L 13.371094 1698.964844 Z M 13.371094 1491.511719 L 188.585938 1592.679688 L 188.574219 1390.339844 L 13.351562 1289.191406 Z M 197.484375 529.683594 L 197.484375 757.722656 L 0 643.699219 Z M 188.546875 545.109375 L 17.804688 643.6875 L 188.546875 742.265625 Z M 1113.59375 0.765625 C 1177.964844 37.839844 1242.285156 75.042969 1306.613281 112.207031 C 1242.273438 149.351562 1177.894531 186.4375 1113.59375 223.640625 C 1049.292969 186.4375 984.902344 149.351562 920.585938 112.207031 Z M 1113.59375 11.058594 L 938.378906 112.207031 L 1113.59375 213.367188 L 1288.800781 112.207031 Z M 1109.128906 1284.058594 L 749.820312 1076.605469 L 749.820312 1491.511719 L 1109.128906 1698.953125 Z M 1477.375 1911.578125 L 1477.386719 1491.511719 L 1841.148438 1281.476562 L 1481.808594 1074.027344 C 1360.457031 1143.863281 1239.359375 1214.132812 1118.058594 1284.050781 L 1118.058594 1704.125 Z M 1486.28125 1584.300781 L 1486.28125 1653.894531 L 1845.582031 1446.441406 L 1845.582031 1376.847656 Z M 1845.582031 1289.210938 L 1486.28125 1496.664062 L 1486.28125 1568.855469 L 1845.582031 1361.40625 Z M 1486.28125 1738.921875 L 1845.582031 1531.480469 L 1845.582031 1461.886719 L 1486.28125 1669.339844 Z M 1486.28125 1823.96875 L 1845.582031 1616.515625 L 1845.582031 1546.925781 L 1486.28125 1754.367188 Z M 1845.582031 1631.953125 L 1486.273438 1839.414062 L 1486.273438 1911.578125 L 1845.582031 1704.125 Z M 680.613281 1111.414062 L 680.625 1526.316406 L 740.933594 1491.511719 L 740.914062 1076.605469 Z M 606.953125 1153.933594 L 606.953125 1568.855469 L 662.820312 1536.589844 L 662.808594 1121.6875 Z M 533.300781 1196.449219 L 533.300781 1611.375 L 589.167969 1579.128906 L 589.160156 1164.203125 Z M 459.667969 1238.96875 L 459.667969 1653.894531 L 515.519531 1621.648438 L 515.507812 1206.734375 Z M 381.59375 1698.964844 L 441.886719 1664.167969 L 441.867188 1249.253906 L 381.59375 1284.050781 Z M 807.867188 1878.054688 L 448.558594 1670.605469 L 386.046875 1706.683594 L 745.367188 1914.136719 Z M 461.925781 1662.882812 L 821.234375 1870.332031 L 881.507812 1835.539062 L 522.1875 1628.085938 Z M 682.878906 1535.316406 L 1042.179688 1742.757812 L 1104.675781 1706.683594 L 745.378906 1499.222656 Z M 955.148438 1793.019531 L 595.839844 1585.554688 L 535.558594 1620.371094 L 894.875 1827.816406 Z M 609.207031 1577.855469 L 968.519531 1785.296875 L 1028.808594 1750.480469 L 669.5 1543.039062 Z M 552.347656 2025.570312 L 381.59375 1927 L 381.59375 2124.160156 Z M 570.160156 2025.582031 L 372.667969 2139.605469 L 372.667969 1911.578125 Z M 1841.160156 2131.863281 L 1486.273438 1926.980469 L 1486.28125 2336.753906 Z M 819.007812 2381.855469 L 1178.328125 2174.382812 L 1113.59375 2137.015625 L 754.265625 2344.476562 Z M 1039.953125 2509.410156 L 1399.300781 2301.957031 L 1334.558594 2264.582031 L 975.226562 2472.042969 Z M 1408.199219 2307.097656 L 1048.871094 2514.550781 L 1113.605469 2551.9375 L 1472.941406 2344.476562 Z M 892.671875 2424.382812 L 1252 2216.921875 L 1187.246094 2179.53125 L 827.914062 2386.996094 Z M 1260.90625 2222.0625 L 901.585938 2429.523438 L 966.3125 2466.902344 L 1325.640625 2259.4375 Z M 1845.601562 438.804688 L 1486.292969 646.246094 L 1486.292969 1066.324219 L 1845.582031 1273.765625 C 1845.582031 995.414062 1845.601562 717.144531 1845.601562 438.804688 Z M 1490.726562 1919.300781 L 1858.960938 2131.882812 C 1610.550781 2275.378906 1362.136719 2418.898438 1113.605469 2562.203125 C 987.871094 2489.703125 862.175781 2417.085938 736.480469 2344.476562 C 862.164062 2271.867188 987.960938 2199.429688 1113.59375 2126.75 L 1477.386719 2336.765625 C 1477.386719 2198.460938 1477.457031 2060.164062 1477.375 1921.859375 C 1356.054688 1851.964844 1234.8125 1781.894531 1113.59375 1711.816406 L 745.367188 1924.429688 C 621.011719 1852.933594 496.855469 1781.023438 372.660156 1709.246094 L 372.660156 1284.027344 L 0.0195312 1068.882812 L 372.660156 853.742188 L 372.660156 428.542969 C 496.894531 356.804688 621.019531 284.875 745.378906 213.367188 L 1113.605469 425.953125 L 1481.808594 213.367188 C 1730.464844 356.460938 1978.722656 500.261719 2227.1875 643.699219 L 1858.960938 856.300781 L 2218.28125 1063.753906 L 2590.96875 848.597656 C 2590.96875 995.464844 2591.050781 1142.332031 2590.949219 1289.199219 C 2468.222656 1218.351562 2345.523438 1147.425781 2222.753906 1076.605469 L 2222.753906 1501.8125 C 2100.015625 1430.957031 1977.226562 1360.140625 1854.507812 1289.210938 L 1854.507812 1709.246094 C 1733.296875 1779.304688 1612.066406 1849.402344 1490.726562 1919.300781 Z M 736.472656 1068.882812 L 377.132812 861.433594 L 17.804688 1068.882812 L 377.140625 1276.347656 C 496.914062 1207.199219 616.699219 1138.042969 736.472656 1068.882812 Z M 2582.074219 863.992188 L 2227.1875 1068.882812 L 2582.0625 1273.777344 L 2582.074219 863.992188 " fill-opacity="1" fill-rule="nonzero"/></g></g></g></g></svg>